<?xml version="1.0" encoding="UTF-8"?>
<svg xmlns="http://www.w3.org/2000/svg" viewBox="0 0 512 512" width="512" height="512"><g id="filled_outline" data-name="filled outline"><path d="M328,488a207.835,207.835,0,0,1-46.9-110.1L280,368H232l-1.1,9.9A207.835,207.835,0,0,1,184,488H328Z" style="fill:#c7830b"/><polygon points="144 368 176 368 144 304 160 304 104 216 48 304 72 304 32 368 64 368 24 432 184 432 144 368" style="fill:#667447"/><path d="M128,488H80a155.883,155.883,0,0,0,8-49.3V432h32v6.7a155.883,155.883,0,0,0,8,49.3Z" style="fill:#c7830b"/><polygon points="448 368 480 368 440 304 464 304 408 216 352 304 368 304 336 368 368 368 328 432 488 432 448 368" style="fill:#7a4922"/><path d="M432,488H384a155.883,155.883,0,0,0,8-49.3V432h32v6.7a155.883,155.883,0,0,0,8,49.3Z" style="fill:#936108"/><path d="M424.3,358.187a372.353,372.353,0,0,1-85.366-73.432L328,272h64l-7.03-6.025A372.4,372.4,0,0,1,304,168h48l-8.255-8.255A372.36,372.36,0,0,1,268.059,50.53L256,24,243.941,50.53a372.36,372.36,0,0,1-75.686,109.215L160,168h48a372.4,372.4,0,0,1-80.97,97.975L120,272h64l-10.933,12.755A372.353,372.353,0,0,1,87.7,358.187L72,368H440Z" style="fill:#91a666"/><path d="M192,248a7.979,7.979,0,0,0,5.8-2.484c4.746-4.985,9.422-10.173,13.9-15.419a8,8,0,0,0-12.173-10.384c-4.287,5.026-8.766,10-13.312,14.771A8,8,0,0,0,192,248Z"/><path d="M220.427,206.505a8,8,0,0,0,11.161-1.848,381.675,381.675,0,0,0,20.962-32.688,8,8,0,0,0-13.892-7.938,366.016,366.016,0,0,1-20.079,31.312A8,8,0,0,0,220.427,206.505Z"/><path d="M24,496H488a8,8,0,0,0,0-16H437.885a147.536,147.536,0,0,1-5.872-40H488a8,8,0,0,0,6.784-12.24L462.434,376H480a8,8,0,0,0,6.784-12.24L454.434,312H464a8,8,0,0,0,6.75-12.3l-56-88a8,8,0,0,0-13.5,0l-23.537,36.987A362.949,362.949,0,0,1,318.09,176H352a8,8,0,0,0,5.657-13.657l-8.255-8.255A363.144,363.144,0,0,1,275.342,47.22L263.283,20.689a8,8,0,0,0-14.566,0L236.658,47.22A363.131,363.131,0,0,1,162.6,154.088l-8.255,8.255A8,8,0,0,0,160,176h33.91a362.927,362.927,0,0,1-59.623,72.693L110.75,211.705a8,8,0,0,0-13.5,0l-56,88A8,8,0,0,0,48,312h9.566l-32.35,51.76A8,8,0,0,0,32,376H49.566l-32.35,51.76A8,8,0,0,0,24,440H79.987a147.536,147.536,0,0,1-5.872,40H24a8,8,0,0,0,0,16Zm66.713-16A163.541,163.541,0,0,0,96,440h16.01a163.541,163.541,0,0,0,5.282,40Zm89.5,0H133.885a147.536,147.536,0,0,1-5.872-40H184a8,8,0,0,0,6.784-12.24L158.434,376h64.628l-.113,1.017A199.232,199.232,0,0,1,180.208,480Zm57.577,0,5.315-9.3A158.876,158.876,0,0,0,264,392a8,8,0,0,0-16,0,142.842,142.842,0,0,1-18.792,70.76L219.357,480h-19.1a215.138,215.138,0,0,0,38.591-101.216L239.16,376h33.68l.309,2.784A215.138,215.138,0,0,0,311.74,480Zm140.33,0H331.792a199.232,199.232,0,0,1-42.741-102.983L288.938,376h64.628l-32.35,51.76A8,8,0,0,0,328,440h55.987A147.536,147.536,0,0,1,378.115,480Zm16.6,0A163.541,163.541,0,0,0,400,440h16.01a163.541,163.541,0,0,0,5.282,40Zm78.853-56H342.434l30-48H440a7.937,7.937,0,0,0,3.146-.672ZM392,280a8,8,0,0,0,5.207-14.074l-7.03-6.026c-.136-.117-.269-.237-.406-.354L408,230.9,449.427,296H440a8,8,0,0,0-6.784,12.24L465.566,360H448c-1.427,0-19.46-8.6-19.46-8.6a363.885,363.885,0,0,1-64.546-51.349L376.755,280ZM214.946,171.969A8,8,0,0,0,208,160H179.208A378.949,378.949,0,0,0,251.224,53.841L256,43.333l4.776,10.508A378.964,378.964,0,0,0,332.792,160H304a8,8,0,0,0-6.946,11.969A379.209,379.209,0,0,0,370.669,264H328a8,8,0,0,0-6.074,13.207l10.933,12.754A379.886,379.886,0,0,0,412.315,360H99.685a379.913,379.913,0,0,0,79.457-70.039l10.932-12.755A8,8,0,0,0,184,264H141.331A379.209,379.209,0,0,0,214.946,171.969ZM357.79,280l-5.172,8.128q-3.663-4.012-7.223-8.128Zm-203.58,0h12.4q-3.549,4.126-7.224,8.128ZM46.434,360l32.35-51.76A8,8,0,0,0,72,296H62.573L104,230.9l18.229,28.646c-.136.117-.269.237-.405.353l-7.03,6.026A8,8,0,0,0,120,280h15.245l12.762,20.055A364,364,0,0,1,83.46,351.4S65.427,360,64,360Zm-8,64,30.42-48.672A7.937,7.937,0,0,0,72,376h67.566l30,48Z"/></g></svg>
