<svg height="512" viewBox="0 0 60 60" width="512" xmlns="http://www.w3.org/2000/svg"><g id="Page-1" fill="none" fill-rule="evenodd"><g id="013---Grass" fill-rule="nonzero"><path id="Shape" d="m56.26 19.22c-3.8416792 5.3649773-6.453638 11.5107628-7.65 18-.5093537 2.8572088-.7271383 5.7587704-.65 8.66-.3.02-.62.07-.96.12 0 0-1.78-4.44-7.85-2.44.8321225-10.5209741 6.6598461-20.0045064 15.67-25.5.88-.56 2.01.35 1.44 1.16z" fill="#60a917"/><path id="Shape" d="m54.82 18.06c-.471.3-.97.633-1.487 1-.018017.0566297-.0425126.1109897-.073.162-3.8416792 5.3649773-6.453638 11.5107628-7.65 18-.3847522 2.1677467-.6020608 4.3618953-.65 6.563.8883125.5150913 1.5995941 1.2873897 2.04 2.215.34-.05.66-.1.96-.12-.0771383-2.9012296.1406463-5.8027912.65-8.66 1.196362-6.4892372 3.8083208-12.6350227 7.65-18 .57-.81-.56-1.72-1.44-1.16z" fill="#549414"/><path id="Shape" d="m53.88 5.85c-3.07 5.86-11.42 22.16-12.36 27.79-1.2846667 3.1685716-2.0836681 6.5129149-2.37 9.92-.36.12-.75.27-1.15.44 0 0-1.24-1.86-4.69-2.64v-.01c-.6125816-3.9051874-1.4506494-7.7716512-2.51-11.58 1.4213073-3.5982179 3.2108208-7.0398479 5.34-10.27v-.01c5.91-8.9 12.74-13.05 16.34-14.76.85-.4 1.79.36 1.4 1.12z" fill="#a4c400"/><path id="Shape" d="m52.48 4.73c-.457.217-.966.474-1.518.774.0000732.12015571-.0280109.23865674-.082.346-3.07 5.86-11.42 22.16-12.36 27.79-1.1447279 2.8457373-1.8979353 5.833673-2.239 8.882.6657764.3731785 1.2502293.8756924 1.719 1.478.4-.17.79-.32 1.15-.44.2863319-3.4070851 1.0853333-6.7514284 2.37-9.92.94-5.63 9.29-21.93 12.36-27.79.39-.76-.55-1.52-1.4-1.12z" fill="#90ac00"/><path id="Shape" d="m33.31 41.35c-2.0241344-.4341407-4.1140285-.4647245-6.15-.09-1.0755964-5.2091189-3.0736877-10.1840277-5.9-14.69-1.7377875-8.1890205-4.0808884-16.2377894-7.01-24.08-.36-.96 1.13-1.58 1.78-.74 3.84 4.93 9.37 12.63 11.67 18.8 1.1985991 3.0152712 2.2334401 6.0930887 3.1 9.22 1.0593506 3.8083488 1.8974184 7.6748126 2.51 11.58z" fill="#60a917"/><path id="Shape" d="m14.85 4.137c3.6 4.816 7.894 11.165 9.85 16.413 1.1985991 3.0152712 2.2334401 6.0930887 3.1 9.22 1.0277897 3.6968189 1.8474104 7.448378 2.455 11.237 1.0274267.0088442 2.0511923.1237875 3.055.343-.6125816-3.9051874-1.4506494-7.7716512-2.51-11.58-.8665599-3.1269113-1.9014009-6.2047288-3.1-9.22-2.3-6.17-7.83-13.87-11.67-18.8-.65-.84-2.14-.22-1.78.74.192.516.394 1.072.6 1.647z" fill="#549414"/><path id="Shape" d="m41.94 2.14c-1.68 4.4-4.85 13-5.8 17.35v.01c-2.1291792 3.2301521-3.9186927 6.6717821-5.34 10.27-.8665599-3.1269113-1.9014009-6.2047288-3.1-9.22 1.8874304-7.687655 6.3388567-14.5023583 12.62-19.32.76-.59 1.94.06 1.62.91z" fill="#008a00"/><path id="Shape" d="m40.32 1.23c-.462.356-.967.766-1.5 1.228-1.707 4.483-4.752 12.781-5.68 17.032v.01c-1.3220518 2.010126-2.5093242 4.1057253-3.554 6.273.446 1.364.854 2.705 1.214 4 1.4211198-3.5992536 3.2106378-7.0418973 5.34-10.273v-.01c.95-4.35 4.12-12.95 5.8-17.35.32-.85-.86-1.5-1.62-.91z" fill="#007900"/><path id="Shape" d="m27.16 41.26c-3.81.71-5.16 2.74-5.16 2.74-1.1594537-.5257727-2.401065-.8471708-3.67-.95-.4393951-1.810985-1.0246389-3.5834378-1.75-5.3-.1721115-6.4693491-1.7521087-12.8234629-4.63-18.62-.43-.84.76-1.61 1.55-1.01 3.0615103 2.3405409 5.6880884 5.2006679 7.76 8.45 2.8263123 4.5059723 4.8244036 9.4808811 5.9 14.69z" fill="#a4c400"/><path id="Shape" d="m21.26 26.57c-2.0719116-3.2493321-4.6984897-6.1094591-7.76-8.45-.79-.6-1.98.17-1.55 1.01.047.094.1.2.146.3 2.3819805 2.076527 4.4573247 4.4804785 6.164 7.14 2.8263123 4.5059723 4.8244036 9.4808811 5.9 14.69-1.6375828.2547588-3.176408.9455894-4.455 2 .7865958.1738467 1.5550094.4216141 2.295.74 0 0 1.35-2.03 5.16-2.74-1.0755964-5.2091189-3.0736877-10.1840277-5.9-14.69z" fill="#90ac00"/><path id="Shape" d="m18.33 43.05c-2.2229317-.2487096-4.360357.9342931-5.33 2.95-1.2993531-.2562398-2.6345628-.2731841-3.94-.05.02-.62.02-1.24.01-1.86-.25-8.18-3.94-15.96-6.24-20.06-.46-.81.67-1.62 1.5-1.07 5.47342035 3.5907652 9.7413452 8.7436312 12.25 14.79.7253611 1.7165622 1.3106049 3.489015 1.75 5.3z" fill="#60a917"/><path id="Shape" d="m16.58 37.75c-2.5086548-6.0463688-6.77657965-11.1992348-12.25-14.79-.822-.545-1.934.245-1.508 1.047 4.7648568 3.5217503 8.483308 8.2719524 10.758 13.743.7253611 1.7165622 1.3106049 3.489015 1.75 5.3-2.1512907-.2331597-4.2282806.8649097-5.247 2.774.9758707-.05588 1.9549273.0031923 2.917.176.969643-2.0157069 3.1070683-3.1987096 5.33-2.95-.4393951-1.810985-1.0246389-3.5834378-1.75-5.3z" fill="#549414"/><path id="Shape" d="m59 48c.0088 1.9112937-1.0777063 3.6587874-2.7956783 4.4964587-1.7179721.8376712-3.7638864.617524-5.2643217-.5664587-.4104661 3.5380973-3.1130273 6.3773775-6.6265801 6.9618101-3.5135528.5844325-6.9897146-1.2270998-8.5234199-4.4418101-1.1102498 2.1761768-3.3469691 3.5460366-5.79 3.5460366s-4.6797502-1.3698598-5.79-3.5460366c-1.5337053 3.2147103-5.0098671 5.0262426-8.5234199 4.4418101-3.5135528-.5844326-6.21611404-3.4237128-6.6265801-6.9618101-1.72304752 1.3423499-4.11869063 1.4086519-5.91334565.1636582-1.79465503-1.2449937-2.57152841-3.5121439-1.91761487-5.5961768.65391354-2.0840328 2.58674807-3.5009494 4.77096052-3.4974814 1.11813272.0000531 2.20217837.3849423 3.07 1.09.01.62.01 1.24-.01 1.86 1.3054372-.2231841 2.6406469-.2062398 3.94.05.969643-2.0157069 3.1070683-3.1987096 5.33-2.95 1.268935.1028292 2.5105463.4242273 3.67.95 0 0 1.35-2.03 5.16-2.74 2.0359715-.3747245 4.1258656-.3441407 6.15.09v.01c3.45.78 4.69 2.64 4.69 2.64.4-.17.79-.32 1.15-.44 6.07-2 7.85 2.44 7.85 2.44.34-.05.66-.1.96-.12-.0771383-2.9012296.1406463-5.8027912.65-8.66 2.5938724.7242876 4.3883167 3.0869044 4.39 5.78 0 .04-.01.08-.01.11.3326187-.0673198.6706878-.1041392 1.01-.11 1.3260824 0 2.597852.5267842 3.5355339 1.4644661s1.4644661 2.2094515 1.4644661 3.5355339z" fill="#a0522d"/><path id="Shape" d="m47.94 51.93c-.4036916 3.451984-2.9899934 6.2484229-6.4 6.92 4.1443003.8203454 8.1996092-1.7684404 9.2-5.873-1.0185163-.0540927-1.9958763-.4195556-2.8-1.047z" fill="#783e22"/><path id="Shape" d="m54 43c-.3393122.0058608-.6773813.0426802-1.01.11 0-.03.01-.07.01-.11-.0016833-2.6930956-1.7961276-5.0557124-4.39-5.78-.1.549-.18 1.112-.258 1.678 1.054775 1.1055745 1.644716 2.5739835 1.648 4.102 0 .04-.01.08-.01.11.3326187-.0673198.6706878-.1041392 1.01-.11 2.4685295-.0072338 4.5707465 1.7929369 4.9434534 4.2331787.372707 2.4402417-1.0963087 4.7858597-3.4544534 5.5158213.4871097.1635047.9971888.2482365 1.511.251 2.7614237 0 5-2.2385763 5-5s-2.2385763-5-5-5z" fill="#783e22"/><g fill="#000"><path id="Shape" d="m53.928 42c-.353307-2.4063134-1.9267902-4.4583866-4.159-5.424 1.2385759-6.0408952 3.7283313-11.7555123 7.309-16.776.5070953-.6975046.4333947-1.6598481-.174-2.272-.6887581-.7130727-1.7846508-.8419029-2.62-.308-3.1884101 2.0170466-6.0452574 4.5156495-8.469 7.407 3.029-6.89 7.244-15.062 8.946-18.313.3616681-.67898395.2401496-1.51422134-.3-2.062-.6294749-.64371204-1.6001998-.81248123-2.41-.419-5.2107908 2.57439719-9.808332 6.237221-13.482 10.741 1.323-4.121 3.118-8.962 4.306-12.082.2931939-.75519584.0336661-1.61299894-.629-2.079-.7573005-.5592671-1.7934026-.54947715-2.54.024-5.6689376 4.3791859-9.912387 10.340686-12.194 17.131-2.648-5.598-7.141-11.868-10.691-16.43-.635966-.80997284-1.7713229-1.02791701-2.662-.511-.8008066.41678583-1.1640467 1.36610479-.846 2.211 2.3640207 6.35605409 4.3547445 12.8447721 5.962 19.433-1.5382233-1.83218-3.2718211-3.4910017-5.17-4.947-.7730307-.5762449-1.8403397-.5472981-2.581.07-.6570692.5249856-.8521266 1.4408347-.466 2.188 2.0692903 4.1435849 3.4484195 8.5971284 4.083 13.185-2.5800161-4.2702234-6.08590976-7.9066612-10.259-10.641-.80257613-.5356456-1.86847211-.4473735-2.572.213-.61672487.552742-.76341906 1.4612458-.352 2.18 2.075 3.705 5.318 10.52 5.989 17.813-.62539899-.2205773-1.28384275-.3328544-1.947-.332-3.3137085 0-6 2.6862915-6 6s2.6862915 6 6 6c.81182607.0003444 1.61484344-.1682279 2.358-.495.95113479 3.2950193 3.6944834 5.761583 7.0717317 6.3582429 3.3772484.59666 6.7996855-.7805916 8.8222683-3.5502429 1.4234649 1.7041733 3.5295363 2.6891296 5.75 2.6891296s4.3265351-.9849563 5.75-2.6891296c2.0225828 2.7696513 5.4450199 4.1469029 8.8222683 3.5502429 3.3772483-.5966599 6.1205969-3.0632236 7.0717317-6.3582429.7419228.3262295 1.5435217.49479 2.354.495 2.1435936-.0128615 4.1174942-1.1683396 5.1781525-3.0311769 1.0606584-1.8628372 1.0469353-4.1500244-.036-6.0000001-1.0829352-1.8499756-3.0705589-2.9816846-5.2141525-2.968823zm1.249-22.981c-5.1737617 7.3744371-8.0343197 16.1225156-8.217 25.129-.6136915-.6995186-1.3796673-1.2489412-2.239-1.606-1.402342-.5417342-2.9346365-.6517808-4.4-.316.3499012-2.8155109 1.0631735-5.573811 2.122-8.206 2.6076988-6.1867658 7.0528204-11.4232405 12.734-15.001zm-2.337-13.352c-3.487 6.672-11.274 22-12.286 27.705-1.2024358 3.0111494-1.9808711 6.1746995-2.313 9.4-1.1490325-1.0593673-2.5408736-1.8200207-4.053-2.215-.5879108-3.6078011-1.3670079-7.1818341-2.334-10.707 1.3746683-3.4294705 3.0895706-6.712542 5.119-9.8.017-.026.033-.052.048-.079 5.747-8.615 12.348-12.65 15.819-14.304zm-11.932-3.631c-1.764 4.646-4.73 12.733-5.7 17.071-1.6099224 2.4582826-3.0242718 5.0392195-4.23 7.719-.676-2.18-1.421-4.3-2.224-6.334 1.876162-7.3368538 6.1549423-13.83423477 12.154-18.456zm-14.137 18.885c1.1852554 2.9815312 2.2084158 6.0249745 3.065 9.117.9187803 3.3269006 1.6700581 6.6978049 2.251 10.1-1.3802282-.183998-2.7787718-.183998-4.159 0-1.1199484-4.9325259-3.0559191-9.6433429-5.728-13.938-1.7181952-8.0791283-4.0243332-16.0219354-6.9-23.765 4.024 5.178 9.262 12.558 11.471 18.486zm-13.771-1.921c2.9216584 2.255718 5.430713 5.0002501 7.416 8.112 2.5895411 4.1255235 4.4642035 8.6585215 5.545 13.408-1.5869263.3901417-3.0482452 1.1782766-4.246 2.29-.836761-.3224192-1.7067702-.5508218-2.594-.681-.414246-1.5562163-.9330926-3.0826878-1.553-4.569-.1928541-6.4401129-1.7497957-12.7660401-4.568-18.56zm4.04 23.1c-.6056059.0656665-1.1992257.2147445-1.764.443-1.1595613.4840928-2.1437421 1.3105814-2.821 2.369-.7925983-.1029201-1.5930942-.1313777-2.391-.085-.039-8.444-3.764-16.576-6.184-20.966 6.4339447 4.3033758 11.10586 10.776905 13.163 18.239zm36.96 9.9c-.8889874-.0043843-1.7507372-.307247-2.447-.86-.2852203-.2211045-.6674464-.2713784-1.0001402-.1315476-.3326938.1398309-.5642367.4480712-.6058598.8065476-.3601098 3.0952935-2.7253739 5.5785336-5.79949 6.0887604-3.0741161.5102267-6.1147714-1.0757654-7.45551-3.8887604-.1640792-.3426378-.5081386-.5627118-.888-.568-.3833998-.0224337-.7410805.193367-.9.543-.939152 1.8422122-2.8322108 3.0020008-4.9 3.0020008s-3.960848-1.1597886-4.9-3.0020008c-.1662566-.3430214-.5190281-.5558603-.9-.543-.3798614.0052882-.7239208.2253622-.888.568-1.3407386 2.812995-4.3813939 4.3989871-7.45551 3.8887604-3.0741161-.5102268-5.4393802-2.9934669-5.79949-6.0887604-.0416231-.3584764-.27316603-.6667167-.60585983-.8065476-.3326938-.1398308-.71491989-.0895569-1.00014017.1315476-1.37693389 1.0737389-3.29191623 1.1280031-4.72744412.1339599-1.4355279-.9940432-2.05844162-2.8056945-1.53776343-4.4723547.52067819-1.6666603 2.06410842-2.8015281 3.81020755-2.8016052.73401634.0036223 1.45164163.2173831 2.068.616v.557c-1.33936747.3249738-2.45249973 1.2523378-3.014 2.511-.16817724.5110253.10342587 1.0626774.611 1.241.51312333.1793534 1.07639988-.0778042 1.277-.583.037-.09.936-2.183 5.9-1.356.4636644.0779686.9190225-.177598 1.094-.614.4401615-.896146 1.1921932-1.6008868 2.115-1.982 1.461-.605 3.332-.427 5.562.529.4395359.1835143.9475484.035691 1.22-.355.067-.105 1.853-2.564 7.167-2.564s7.1 2.459 7.168 2.555c.267533.4009488.7830152.5539958 1.226.364 2.213-.949 4.073-1.133 5.528-.543.9405617.3755329 1.7069661 1.0887989 2.149 2 .1749775.436402.6303356.6919686 1.094.614 4.912-.82 5.841 1.223 5.894 1.352.1832545.5181888.7503699.791348 1.2697896.6116123.5194198-.1797357.7964191-.7449854.6202104-1.2656123-.046-.138-1.078-2.992-5.989-2.874-.0056505-2.0666527.144105-4.130805.448-6.175 1.5759982.8582733 2.5667746 2.4996291 2.592 4.294-.005.043-.013.133-.013.177.0001113.2967326.1319981.5780911.36.768.2282276.1883998.5275442.2673405.819.216.2745705-.0565828.5537231-.088046.834-.094 2.209139 0 4 1.790861 4 4s-1.790861 4-4 4z"/><path id="Shape" d="m37 47c-.5522847 0-1 .4477153-1 1s-.4477153 1-1 1-1-.4477153-1-1-.4477153-1-1-1-1 .4477153-1 1c0 1.6568542 1.3431458 3 3 3s3-1.3431458 3-3c0-.5522847-.4477153-1-1-1z"/><path id="Shape" d="m21 50c-.5522847 0-1 .4477153-1 1s-.4477153 1-1 1-1-.4477153-1-1-.4477153-1-1-1-1 .4477153-1 1c0 1.6568542 1.3431458 3 3 3s3-1.3431458 3-3c0-.5522847-.4477153-1-1-1z"/><circle id="Oval" cx="24" cy="47" r="1"/><circle id="Oval" cx="4" cy="39" r="1"/><circle id="Oval" cx="29" cy="52" r="1"/><circle id="Oval" cx="46" cy="50" r="1"/><circle id="Oval" cx="57" cy="39" r="1"/><circle id="Oval" cx="54" cy="35" r="1"/><circle id="Oval" cx="42" cy="54" r="1"/></g></g></g></svg>